<svg width="83" height="89" viewBox="0 0 83 89" fill="none" xmlns="http://www.w3.org/2000/svg">
<path d="M56.9312 29.0793L65.9577 41.5943C70.6496 48.0995 69.2003 57.1606 62.7205 61.8342L58.6318 64.7832C54.5141 67.7531 49.132 68.3401 44.4536 66.3247L26.1024 58.4228C24.0781 57.5489 23.1363 55.2034 23.9987 53.182C24.2912 52.4927 24.7586 51.9297 25.3216 51.5237C26.4185 50.7325 27.8927 50.5195 29.2275 51.098L36.8217 54.3672L19.7773 30.7355C18.5376 29.0167 18.7531 26.5938 20.3733 25.2437C21.3058 24.4693 22.4714 24.1954 23.562 24.3742C24.5676 24.5391 25.5137 25.0923 26.1566 25.9838L35.1831 38.4987C33.893 36.7101 34.2918 34.217 36.0735 32.9319C36.9644 32.2894 38.0316 32.0688 39.0372 32.2336C40.0428 32.3985 40.9889 32.9517 41.6318 33.8432L43.2245 36.0513C41.9344 34.2626 42.3332 31.7696 44.1149 30.4845C45.0058 29.842 46.073 29.6213 47.0786 29.7862C48.0842 29.9511 49.0303 30.5043 49.6732 31.3957L51.0537 33.3097C49.8812 31.6842 50.2439 29.4164 51.8632 28.2485C52.6728 27.6645 53.6444 27.4642 54.5599 27.6143C55.4755 27.7644 56.335 28.2649 56.9212 29.0777L56.9312 29.0793Z" fill="white"/>
<path d="M54.8893 26.0039C53.5535 25.7849 52.2116 26.1018 51.1176 26.8908C50.3631 27.435 49.8013 28.1546 49.4533 28.9504C48.8406 28.5597 48.1463 28.2943 47.4109 28.1737C45.98 27.9391 44.5424 28.2763 43.3672 29.1239C42.514 29.7393 41.8925 30.5595 41.5232 31.4725C40.8811 31.041 40.15 30.7491 39.3645 30.6203C37.9336 30.3857 36.4961 30.7229 35.3208 31.5705C34.5808 32.1042 34.0139 32.7922 33.634 33.5621L27.423 24.9508C26.5721 23.771 25.313 22.9917 23.8822 22.7572C22.3312 22.5029 20.7481 22.9318 19.5364 23.943C17.3545 25.7558 16.9849 29.0294 18.6932 31.3978L32.6742 50.7821L29.8856 49.5826C28.1424 48.8293 26.1019 49.0522 24.561 50.1635C23.7601 50.7412 23.1342 51.5248 22.7535 52.4282C21.5814 55.1824 22.8685 58.3859 25.6228 59.5747L43.9741 67.4766C49.0872 69.6789 55.0644 69.0302 59.5681 65.7819L63.6568 62.8329C70.7721 57.701 72.3695 47.7137 67.2175 40.5706L58.191 28.0556C57.3968 26.9544 56.2243 26.2279 54.8835 26.0081L54.8893 26.0039ZM64.8736 42.2567C69.0885 48.1005 67.7839 56.2735 61.9599 60.4741L57.8712 63.4231C54.1858 66.0812 49.2977 66.613 45.1118 64.8093L26.7605 56.9074C25.4734 56.3522 24.8757 54.8568 25.4234 53.5672C25.601 53.1468 25.8923 52.7861 26.2637 52.5182C26.995 51.9908 27.9256 51.8865 28.7537 52.2457L36.348 55.5149C36.9485 55.7726 37.6438 55.5989 38.0486 55.0899C38.4535 54.5808 38.4705 53.8644 38.0881 53.3342L21.0436 29.7025C20.2263 28.5693 20.3792 27.0197 21.3953 26.1717C21.9774 25.6943 22.6945 25.4959 23.425 25.6157C24.0954 25.7256 24.6791 26.0884 25.0783 26.6419L38.7778 45.6358C39.2463 46.2855 40.1519 46.4339 40.799 45.9672C41.4461 45.5004 41.591 44.5943 41.1225 43.9447L36.4495 37.4658C35.6301 36.3297 35.8818 34.7398 37.0164 33.9214C37.5649 33.5259 38.2369 33.3689 38.9023 33.478C39.5727 33.5879 40.1564 33.9507 40.5556 34.5042L46.2897 42.4543C46.7582 43.1039 47.6638 43.2524 48.3109 42.7857C48.958 42.3189 49.1029 41.4128 48.6344 40.7632L44.493 35.0213C43.6736 33.8852 43.9282 32.2932 45.0599 31.4769C45.6084 31.0814 46.2804 30.9244 46.9458 31.0335C47.6162 31.1434 48.1999 31.5062 48.5991 32.0597L53.8016 39.2728C54.2701 39.9224 55.1756 40.0709 55.8228 39.6041C56.4699 39.1374 56.6148 38.2313 56.1462 37.5816L52.3243 32.2826C51.6225 31.3096 51.8403 29.9479 52.8095 29.2488C53.2796 28.9098 53.853 28.7752 54.4284 28.8695C55.0037 28.9638 55.5059 29.2748 55.8463 29.7467L64.8728 42.2617L64.8736 42.2567Z" fill="black"/>
</svg>
