<svg width="32" height="32" viewBox="0 0 32 32" fill="none" xmlns="http://www.w3.org/2000/svg">
<path d="M17.9727 17.4779V14.7179H21.0687V11.6699H23.7807V14.7179H26.8527V17.4779H23.7807V20.5499H21.0687V17.4779H17.9727Z" fill="white"/>
<path d="M10.4972 25.0859C7.32923 25.0859 5.24123 23.7419 3.65723 21.9419L6.63323 19.5899C7.52123 21.1019 8.88923 21.9659 10.4732 21.9659C12.2012 21.9659 13.1372 20.8379 13.1372 19.6139C13.1372 18.1259 11.3612 17.6699 9.48923 17.0939C7.13723 16.3499 4.52123 15.4379 4.52123 12.1019C4.52123 9.29394 6.96923 7.08594 10.3292 7.08594C13.1612 7.08594 14.7932 8.16594 16.2092 9.62994L13.5212 11.6699C12.7772 10.5659 11.7452 9.98994 10.3532 9.98994C8.76923 9.98994 7.90523 10.8539 7.90523 11.9819C7.90523 13.3739 9.58523 13.8299 11.4812 14.4539C13.8572 15.2219 16.5452 16.2779 16.5452 19.6379C16.5452 22.3979 14.3372 25.0859 10.4972 25.0859Z" fill="white"/>
</svg>
